
<svg xmlns="http://www.w3.org/2000/svg" version="1.1" xmlns:xlink="http://www.w3.org/1999/xlink" preserveAspectRatio="none" x="0px" y="0px" width="400px" height="800px" viewBox="0 0 400 800">
<defs>
<g id="mano_0_Layer0_0_FILL">
<path fill="#EED1C6" stroke="none" d="
M 109.55 97.45
Q 108.85 92 108.85 91.5 108.7 90.3 108.55 89.25 108.35 87.2 108.65 85.1 109.35 80.4 107.05 79.2 106.15 78.75 105.5 79.35 103.9 80.95 101.65 82.9 98.8 85.35 98.55 94.35 98.4 98.9 98.85 102.9 95.25 104.55 91.9 110.5 90.2 113.45 89.25 116.1 86.75 114.9 83.75 115
L 81.25 115.3 79.95 89.3 75.75 33.8
Q 75.3 29.45 73.7 25 71.6 19.25 69.15 19.6 66.85 19.9 65.8 26.1 65.3 29.2 65.25 32.2
L 66.75 79.1 62.25 78.1
Q 61.55 29.5 60.85 22.6 60.35 17.6 58.8 15.75 57.4 14.1 54.05 13.8 51.35 13.55 50.5 17.65 50.05 19.7 50.15 21.8
L 49.65 78.7 45.05 79.6
Q 45.75 34.8 45.95 28.4 46.1 24.05 44.75 22.85 44 22.15 40.65 21.8 38.35 21.6 37.25 31 36.75 35.7 36.65 40.4
L 35.05 83.1 29 86 28.85 52.8
Q 28.85 47.45 28.75 46.75 28.5 45.15 27.05 45.1 25.7 45.05 25 46.45 24.95 46.55 23.75 50 23.05 52.05 22.25 59.55 21.5 66.35 21.35 70.95 21 83.3 20 88.35 19.5 90.65 17.65 95.55 15.7 100.7 15.35 102.15 14.35 106.35 14.35 131.85 14.35 137.9 18.15 150.4 20.15 157 23.25 166.5 24.4 170.7 20.15 179.1 18.016015625 183.318359375 15.65 186.65
L 62.05 186.65
Q 63.85 178.65 65.25 170.95 66.15 166.15 68.7 162.8
L 71.05 160.45
Q 85.75 143.95 90.95 139.35 94.2 136.45 98.9 127.7
L 102.95 119.5
Q 109.75 107.65 110.05 104.85 110.25 103.15 109.55 97.45 Z"/>
</g>

<path id="mano_0_Layer0_1_1_STROKES" stroke="#843D15" stroke-width="2" stroke-linejoin="miter" stroke-linecap="round" stroke-miterlimit="10" fill="none" d="
M -109.14239730834962 0.009211730956963038
Q -104.87204132080078 -8.09351501464846 -100.711181640625 -17.838686370849587 -92.60845489501953 -37.438525390625045 -93.70341796875 -45.979237365722724 -94.36039581298829 -51.45405273437507 -101.80614471435547 -74.66726989746098 -108.81390838623047 -96.34753875732429 -109.03290100097657 -105.10724334716804 -110.12786407470703 -143.21195831298832 -110.12786407470703 -148.7962699890137 -110.12786407470703 -182.52113265991215 -106.40498962402344 -192.26630401611328 -94.79838104248047 -222.37778854370117 -93.70341796875 -237.1597900390625 -93.26543273925782 -261.90595550537114 -91.73248443603515 -279.42536468505864 -88.5570915222168 -312.82173843383794 -79.687890625 -314.2451904296875 -70.70919342041016 -315.66864242553714 -68.7382598876953 -307.3469230651856 -68.40977096557617 -305.92347106933596 -68.40977096557617 -293.4408920288086
L -68.19077835083007 -223.3632553100586"/>

<path id="mano_0_Layer0_2_1_STROKES" stroke="#843D15" stroke-width="2" stroke-linejoin="miter" stroke-linecap="round" stroke-miterlimit="10" fill="none" d="
M -63.044451904296864 -226.86713714599614
L -58.22661437988282 -345.9991195678711
Q -58.44560699462892 -350.9264533996582 -56.91265869140625 -355.8537872314453 -53.84676208496094 -365.70845489501954 -44.649072265624994 -365.70845489501954 -35.451382446289074 -365.70845489501954 -31.838004302978504 -359.13867645263673 -29.97656707763673 -355.8537872314453 -29.97656707763673 -352.5688980102539"/>

<path id="mano_0_Layer0_3_1_STROKES" stroke="#843D15" stroke-width="2" stroke-linejoin="miter" stroke-linecap="round" stroke-miterlimit="10" fill="none" d="
M 7.690162658691406 0.009211730956963038
Q 8.23764419555664 -9.954952239990234 9.98958511352538 -20.904582977294922 13.493466949462913 -42.91334075927739 19.51576385498049 -48.16916351318366 25.53806076049807 -53.31548995971684 49.95573730468749 -80.68956680297856
L 73.16895446777346 -106.96868057250981
Q 74.26391754150393 -107.73515472412112 76.5633399963379 -111.12954025268562 81.27168121337888 -117.69931869506843 87.40347442626955 -130.18189773559573 90.46937103271483 -136.42318725585938 102.51396484374999 -158.10345611572268 110.17870635986327 -172.0094871520996 110.17870635986327 -175.07538375854494 110.17870635986327 -198.8360824584961 107.98878021240233 -206.82931289672854 106.78432083129883 -211.2091651916504 107.22230606079103 -218.65491409301762
L 107.76978759765626 -228.50958175659184
Q 107.55079498291013 -233.32741928100586 105.47036514282229 -236.61230850219727 102.62346115112302 -241.10165710449223 97.25814208984377 -239.89719772338867 89.9218894958496 -238.36424942016606 83.35211105346679 -230.69950790405278 75.6873695373535 -221.61131439208987 75.6873695373535 -210.11420211791994
L 75.57787322998047 -185.58702926635743
Q 72.29298400878906 -182.84962158203126 68.57010955810546 -178.25077667236332 61.23385696411134 -169.27207946777344 58.93443450927737 -160.40287857055665 54.22609329223633 -162.5928047180176 45.90437393188478 -161.82633056640628 29.151438903808582 -160.5123748779297 10.975051879882812 -146.16835861206056"/>

<path id="mano_0_Layer0_4_1_STROKES" stroke="#843D15" stroke-width="2" stroke-linejoin="miter" stroke-linecap="round" stroke-miterlimit="10" fill="none" d="
M 46.88984069824221 -161.71683425903325
Q 42.728981018066406 -227.0861297607422 42.509988403320335 -238.36424942016606 42.40049209594724 -246.02899093627934 40.10106964111327 -278.4398979187012 38.13013610839846 -308.1133972167969 37.25416564941406 -316.9825981140137 35.17373580932616 -337.4584075927735 32.65532073974612 -347.42257156372074 26.961512756347645 -370.7452850341797 16.449867248535156 -370.4167961120606 5.828725433349632 -370.0883071899414 3.74829559326173 -348.2985420227051 3.091317749023432 -341.071785736084 3.74829559326173 -318.7345390319824
L 5.06225128173827 -237.2692863464356"/>

<path id="mano_0_Layer0_5_1_STROKES" stroke="#843D15" stroke-width="2" stroke-linejoin="miter" stroke-linecap="round" stroke-miterlimit="10" fill="none" d="
M -31.947500610351568 -236.72180480957036
L -29.75757446289063 -367.2414031982422
Q -29.429085540771496 -371.07377395629885 -27.896137237548828 -375.0156410217285 -24.611248016357422 -382.78987884521484 -17.931973266601574 -382.78987884521484 -7.201335144042957 -382.78987884521484 -3.040475463867182 -377.09607086181643 3.74829559326173 -368.1173736572266 3.3103103637695312 -340.3053115844727"/>

<path id="mano_0_Layer0_6_1_STROKES" stroke="#843D15" stroke-width="1" stroke-linejoin="miter" stroke-linecap="round" stroke-miterlimit="10" fill="none" d="
M -3.916445922851551 -220.62584762573243
Q -5.996875762939453 -210.4426910400391 -18.807943725585943 -199.93104553222656 -44.53957595825196 -178.68876190185551 -98.52125549316406 -176.38933944702148"/>

<path id="mano_0_Layer0_7_1_STROKES" stroke="#843D15" stroke-width="1" stroke-linejoin="miter" stroke-linecap="round" stroke-miterlimit="10" fill="none" d="
M 20.063245391845726 -232.34195251464848
Q 9.442103576660145 -237.48827896118166 -9.06277236938476 -237.5977752685547 -46.0725242614746 -237.92626419067386 -85.0532096862793 -212.85160980224612"/>

<path id="mano_0_Layer0_8_1_STROKES" stroke="#843D15" stroke-width="1" stroke-linejoin="miter" stroke-linecap="round" stroke-miterlimit="10" fill="none" d="
M 10.975051879882812 -281.9437797546387
L 18.968282318115257 -282.0532760620117
Q 29.041942596435547 -282.1627723693848 39.77258071899416 -281.9437797546387"/>

<path id="mano_0_Layer0_9_1_STROKES" stroke="#843D15" stroke-width="1" stroke-linejoin="miter" stroke-linecap="round" stroke-miterlimit="10" fill="none" d="
M 3.8577919006347656 -318.51554641723635
L 11.303540802001976 -320.15799102783205
Q 20.282238006591797 -321.80043563842776 28.494461059570312 -321.80043563842776"/>

<path id="mano_0_Layer0_10_1_STROKES" stroke="#843D15" stroke-width="1" stroke-linejoin="miter" stroke-linecap="round" stroke-miterlimit="10" fill="none" d="
M 3.3103103637695312 -287.8565803527832
Q -0.5220603942871094 -288.2945655822754 -5.668386840820318 -288.5135581970215 -15.851543426513672 -288.9515434265137 -21.764344024658214 -287.8565803527832"/>

<path id="mano_0_Layer0_11_1_STROKES" stroke="#843D15" stroke-width="1" stroke-linejoin="miter" stroke-linecap="round" stroke-miterlimit="10" fill="none" d="
M -31.947500610351568 -274.7170234680176
Q -32.2759895324707 -275.70249023437503 -35.34188613891601 -276.14047546386723 -41.47367935180665 -277.1259422302246 -55.16071777343751 -274.7170234680176"/>

<path id="mano_0_Layer0_12_1_STROKES" stroke="#843D15" stroke-width="1" stroke-linejoin="miter" stroke-linecap="round" stroke-miterlimit="10" fill="none" d="
M -59.32157745361329 -311.94576797485354
L -54.17525100708008 -314.79267196655275
Q -46.948494720458996 -317.31108703613285 -36.54634552001954 -316.3256202697754"/>

<path id="mano_0_Layer0_13_1_STROKES" stroke="#843D15" stroke-width="1" stroke-linejoin="miter" stroke-linecap="round" stroke-miterlimit="10" fill="none" d="
M -74.97954940795898 -274.7170234680176
Q -83.1917724609375 -275.37400131225587 -91.95147705078125 -272.08911209106446"/>

<path id="mano_0_Layer0_14_1_STROKES" stroke="#843D15" stroke-width="1" stroke-linejoin="miter" stroke-linecap="round" stroke-miterlimit="10" fill="none" d="
M -67.64329681396484 -240.22568664550784
Q -68.19077835083007 -241.21115341186527 -70.70919342041016 -241.86813125610354 -75.63652725219727 -243.29158325195317 -84.8342170715332 -241.97762756347657"/>
</defs>

<g transform="matrix( 0.8789520263671875, 0.476898193359375, -0.476898193359375, 0.8789520263671875, 207,496.45) ">
<g transform="matrix( 2.1899261474609375, 0, 0, 2.1899261474609375, -135.75,-408.85) ">
<use xlink:href="#mano_0_Layer0_0_FILL"/>
</g>

<g transform="matrix( 2.1899261474609375, 0, 0, 2.1899261474609375, -135.75,-408.85) ">
<use xlink:href="#mano_0_Layer0_1_1_STROKES" transform="matrix( 0.456634521484375, 0, 0, 0.456634521484375, 61.95,186.65) "/>
</g>

<g transform="matrix( 2.1899261474609375, 0, 0, 2.1899261474609375, -135.75,-408.85) ">
<use xlink:href="#mano_0_Layer0_2_1_STROKES" transform="matrix( 0.456634521484375, 0, 0, 0.456634521484375, 61.95,186.65) "/>
</g>

<g transform="matrix( 2.1899261474609375, 0, 0, 2.1899261474609375, -135.75,-408.85) ">
<use xlink:href="#mano_0_Layer0_3_1_STROKES" transform="matrix( 0.456634521484375, 0, 0, 0.456634521484375, 61.95,186.65) "/>
</g>

<g transform="matrix( 2.1899261474609375, 0, 0, 2.1899261474609375, -135.75,-408.85) ">
<use xlink:href="#mano_0_Layer0_4_1_STROKES" transform="matrix( 0.456634521484375, 0, 0, 0.456634521484375, 61.95,186.65) "/>
</g>

<g transform="matrix( 2.1899261474609375, 0, 0, 2.1899261474609375, -135.75,-408.85) ">
<use xlink:href="#mano_0_Layer0_5_1_STROKES" transform="matrix( 0.456634521484375, 0, 0, 0.456634521484375, 61.95,186.65) "/>
</g>

<g transform="matrix( 2.1899261474609375, 0, 0, 2.1899261474609375, -135.75,-408.85) ">
<use xlink:href="#mano_0_Layer0_6_1_STROKES" transform="matrix( 0.456634521484375, 0, 0, 0.456634521484375, 61.95,186.65) "/>
</g>

<g transform="matrix( 2.1899261474609375, 0, 0, 2.1899261474609375, -135.75,-408.85) ">
<use xlink:href="#mano_0_Layer0_7_1_STROKES" transform="matrix( 0.456634521484375, 0, 0, 0.456634521484375, 61.95,186.65) "/>
</g>

<g transform="matrix( 2.1899261474609375, 0, 0, 2.1899261474609375, -135.75,-408.85) ">
<use xlink:href="#mano_0_Layer0_8_1_STROKES" transform="matrix( 0.456634521484375, 0, 0, 0.456634521484375, 61.95,186.65) "/>
</g>

<g transform="matrix( 2.1899261474609375, 0, 0, 2.1899261474609375, -135.75,-408.85) ">
<use xlink:href="#mano_0_Layer0_9_1_STROKES" transform="matrix( 0.456634521484375, 0, 0, 0.456634521484375, 61.95,186.65) "/>
</g>

<g transform="matrix( 2.1899261474609375, 0, 0, 2.1899261474609375, -135.75,-408.85) ">
<use xlink:href="#mano_0_Layer0_10_1_STROKES" transform="matrix( 0.456634521484375, 0, 0, 0.456634521484375, 61.95,186.65) "/>
</g>

<g transform="matrix( 2.1899261474609375, 0, 0, 2.1899261474609375, -135.75,-408.85) ">
<use xlink:href="#mano_0_Layer0_11_1_STROKES" transform="matrix( 0.456634521484375, 0, 0, 0.456634521484375, 61.95,186.65) "/>
</g>

<g transform="matrix( 2.1899261474609375, 0, 0, 2.1899261474609375, -135.75,-408.85) ">
<use xlink:href="#mano_0_Layer0_12_1_STROKES" transform="matrix( 0.456634521484375, 0, 0, 0.456634521484375, 61.95,186.65) "/>
</g>

<g transform="matrix( 2.1899261474609375, 0, 0, 2.1899261474609375, -135.75,-408.85) ">
<use xlink:href="#mano_0_Layer0_13_1_STROKES" transform="matrix( 0.456634521484375, 0, 0, 0.456634521484375, 61.95,186.65) "/>
</g>

<g transform="matrix( 2.1899261474609375, 0, 0, 2.1899261474609375, -135.75,-408.85) ">
<use xlink:href="#mano_0_Layer0_14_1_STROKES" transform="matrix( 0.456634521484375, 0, 0, 0.456634521484375, 61.95,186.65) "/>
</g>
</g>
</svg>
