<svg version="1.1" id="SyXeStl3soG" xmlns="http://www.w3.org/2000/svg" xmlns:xlink="http://www.w3.org/1999/xlink" x="0px" y="0px" viewBox="0 0 124 202" style="enable-background:new 0 0 124 202;">
    <style xmlns="http://www.w3.org/1999/xhtml">
        @-webkit-keyframes rkIlSte3ssf_BJsnZhsoM_Animation{2.22%{-webkit-transform: scale(1, 1);transform: scale(1, 1);}48.89%{-webkit-transform: scale(1, 0.5);transform: scale(1, 0.5);}0%{-webkit-transform: scale(1, 1);transform: scale(1, 1);}100%{-webkit-transform: scale(1, 0.5);transform: scale(1, 0.5);}}@keyframes rkIlSte3ssf_BJsnZhsoM_Animation{2.22%{-webkit-transform: scale(1, 1);transform: scale(1, 1);}48.89%{-webkit-transform: scale(1, 0.5);transform: scale(1, 0.5);}0%{-webkit-transform: scale(1, 1);transform: scale(1, 1);}100%{-webkit-transform: scale(1, 0.5);transform: scale(1, 0.5);}}@-webkit-keyframes HJ5grKl2ijG_Animation{0%{opacity: 1;}100%{opacity: 0;}}@keyframes HJ5grKl2ijG_Animation{0%{opacity: 1;}100%{opacity: 0;}}#SyXeStl3soG *{-webkit-animation-duration: 3s;animation-duration: 3s;-webkit-animation-play-state: running;animation-play-state: running;-webkit-animation-timing-function: cubic-bezier(0, 0, 1, 1);animation-timing-function: cubic-bezier(0, 0, 1, 1);transform-box: fill-box;-webkit-transform-origin: 50% 50%;transform-origin: 50% 50%;}#HJVeHYghssf{fill: #EED1C6;}#ByrxSFe2soG{fill: none;stroke: #843D15;stroke-width: 2;stroke-linecap: round;stroke-miterlimit: 10;}#rkIlSte3ssf{fill: none;stroke: #843D15;stroke-width: 2;stroke-linecap: round;stroke-miterlimit: 10;}#SkDlHtg3ssz{fill: none;stroke: #843D15;stroke-width: 2;stroke-linecap: round;stroke-miterlimit: 10;}#Hk_lrtlnosz{fill: none;stroke: #843D15;stroke-linecap: round;stroke-miterlimit: 10;}#SkYlrFxnsjG{fill: none;stroke: #843D15;stroke-width: 2;stroke-linecap: round;stroke-miterlimit: 10;}#HJ5grKl2ijG{fill: none;stroke: #843D15;stroke-width: 2;stroke-linecap: round;stroke-miterlimit: 10;-webkit-transform-origin: 50% 50%;transform-origin: 50% 50%;opacity: 1;}#SyXeStl3soG:hover #HJ5grKl2ijG{-webkit-animation-name: HJ5grKl2ijG_Animation;animation-name: HJ5grKl2ijG_Animation;}#HkixrFensjG{fill: none;stroke: #843D15;stroke-linecap: round;stroke-miterlimit: 10;}#rJ3xSKx2ssG{fill: none;stroke: #843D15;stroke-linecap: round;stroke-miterlimit: 10;}#H1TeSKl3jjf{fill: none;stroke: #843D15;stroke-linecap: round;stroke-miterlimit: 10;}#rJRxBteniiM{fill: none;stroke: #843D15;stroke-linecap: round;stroke-miterlimit: 10;}#SyJWBKghiiz{fill: none;stroke: #843D15;stroke-linecap: round;stroke-miterlimit: 10;}#B1ebHKl3ojz{fill: none;stroke: #843D15;stroke-linecap: round;stroke-miterlimit: 10;}#S1W-BFxhjoM{fill: none;stroke: #843D15;stroke-linecap: round;stroke-miterlimit: 10;}#Skz-HFl3ijf{fill: none;stroke: #843D15;stroke-linecap: round;stroke-miterlimit: 10;}#H1QWrKx3sjM{fill: none;stroke: #843D15;stroke-linecap: round;stroke-miterlimit: 10;}#SJEbSYxhiif{fill: none;stroke: #843D15;stroke-linecap: round;stroke-miterlimit: 10;}#S1rbHtxnosM{fill: none;stroke: #843D15;stroke-linecap: round;stroke-miterlimit: 10;}#rk8-rtlniiz{fill: none;stroke: #843D15;stroke-linecap: round;stroke-miterlimit: 10;}#r1PbrKl3ijG{fill: none;stroke: #843D15;stroke-linecap: round;stroke-miterlimit: 10;}#HkO-Htl2oiM{fill: none;stroke: #843D15;stroke-linecap: round;stroke-miterlimit: 10;}#rkIlSte3ssf_BJsnZhsoM{-webkit-transform-origin: 50% 50%;transform-origin: 50% 50%;-webkit-transform: scale(1, 1);transform: scale(1, 1);}#SyXeStl3soG:hover #rkIlSte3ssf_BJsnZhsoM{-webkit-animation-name: rkIlSte3ssf_BJsnZhsoM_Animation;animation-name: rkIlSte3ssf_BJsnZhsoM_Animation;}
    </style>
    <path d="M15.7,186.7c0,0,9.4-13.5,7.6-20.2s-8.9-24.8-8.9-34.7s0.2-26.3,1-29.7s3.7-9.6,4.6-13.8s1.2-12,1.4-17.4&#10;&#9;s1.4-18,2.4-20.9c1-2.9,1.2-5,3.3-4.9s1.8,1.7,1.8,7.7S29,86,29,86l6.1-2.9l1.6-42.7c0,0,0.3-18.9,4-18.6c3.7,0.4,5.5,0.2,5.3,6.6&#10;&#9;s-0.9,51.2-0.9,51.2l4.6-0.9l0.5-56.9c0,0-0.4-8.4,3.9-8s6.1,1.9,6.8,8.8s1.4,55.5,1.4,55.5l4.5,1l-1.5-46.9c0,0,0.2-12.1,3.9-12.6&#10;&#9;s6.2,10.2,6.6,14.2s4.2,55.5,4.2,55.5l1.3,23.5v2.5c0,0,4-1.1,8,0.8c0,0,3.8-10.6,9.6-13.2c0,0-1.8-16.1,2.8-20&#10;&#9;c4.5-3.9,4-4.4,5.4-3.7s2.1,2.5,1.6,5.9s0.2,5.5,0.2,6.4s1.5,10.5,1.2,13.3s-7.1,14.7-7.1,14.7s-6.8,15.2-12,19.8&#10;&#9;s-19.9,21.1-19.9,21.1s-4.4,2.8-5.8,10.5s-3.2,15.7-3.2,15.7H15.7z" id="HJVeHYghssf"/>
    <path d="M12.2,186.7c0,0,7.8-14.8,7-21s-6.8-19.8-7-27s-1.5-32.8,1.2-39.8s5.4-15,5.8-20.5s-0.1-34.2,6.4-35.2&#10;&#9;s5.2,6.2,5.2,9.5s0.1,32,0.1,32" id="ByrxSFe2soG"/>
    <g id="rkIlSte3ssf_BJsnZhsoM" data-animator-group="true" data-animator-type="2">
        <path d="M33.2,83.1l2.2-54.4c0,0-0.5-9,6.2-9s6.7,6,6.7,6" id="rkIlSte3ssf"/>
    </g>
    <path d="M65.5,186.7c0,0,1-18.2,5.4-22s24.5-26.9,24.5-26.9s2-1.5,6.5-10.6s10.4-18.1,10.4-20.5s-0.1-11.2-1-14.5&#10;&#9;s0-7.8-0.1-9.9s-1.1-6-4.8-5.2s-9.8,5.9-9.8,13.6s-0.1,11.2-0.1,11.2s-5.9,5.1-7.6,11.5c0,0-8.6-3.9-21.9,6.5" id="SkDlHtg3ssz"/>
    <path d="M107.2,103.1c0,0-4.9-3.6-10.8-1.1" id="Hk_lrtlnosz"/>
    <path d="M83.4,112.8c0,0-1.9-29.8-2-35s-2-31.6-2.4-35.9s-1.9-24.6-9.5-24.4s-5.9,18.9-5.8,23.6s0.6,37.2,0.6,37.2" id="SkYlrFxnsjG"/>
    <path d="M47.4,78.6l1-59.6c0,0,0.5-7.1,5.4-7.1s10,0.4,9.7,19.4" id="HJ5grKl2ijG"/>
    <path d="M60.2,85.9c0,0-3.8,18.5-43.2,20.2" id="HkixrFensjG"/>
    <path d="M73.4,93.2c0,0-46.9,21.5-56.4,46.2" id="rJ3xSKx2ssG"/>
    <path d="M65.5,104.9c0,0-21.2,14-15.5,47" id="H1TeSKl3jjf"/>
    <path d="M65.5,165.4c0,0-15.8,4-26.9,1" id="rJRxBteniiM"/>
    <path d="M52.1,162.7c0,0-9.1-3.5-13.4-2.8s-12.8,2.5-17.2-0.1" id="SyJWBKghiiz"/>
    <path d="M71.2,80.6c0,0-19.5-9.4-48,8.9" id="B1ebHKl3ojz"/>
    <path d="M67,57.9c0,0,5.3-0.2,13.2,0" id="S1W-BFxhjoM"/>
    <path d="M63.8,41.2c0,0,5.2-1.5,11.2-1.5" id="Skz-HFl3ijf"/>
    <path d="M63.5,55.2c0,0-7.1-0.8-11.4,0" id="H1QWrKx3sjM"/>
    <path d="M47.4,61.2c0,0-0.6-1.8-10.6,0" id="SJEbSYxhiif"/>
    <path d="M34.9,44.2c0,0,2.8-2.7,10.4-2" id="S1rbHtxnosM"/>
    <path d="M48.3,34.7c0,0,4.9-2.8,11.9-1" id="rk8-rtlniiz"/>
    <path d="M27.8,61.2c0,0-3.8-0.3-7.8,1.2" id="r1PbrKl3ijG"/>
    <path d="M31.1,77c0,0-1.1-1.8-7.8-0.8" id="HkO-Htl2oiM"/>
</svg>