<?xml version="1.0" encoding="utf-8"?>
<!-- Generator: Adobe Illustrator 22.0.1, SVG Export Plug-In . SVG Version: 6.00 Build 0)  -->
<svg version="1.1" id="Capa_1" xmlns="http://www.w3.org/2000/svg" xmlns:xlink="http://www.w3.org/1999/xlink" x="0px" y="0px"
	 viewBox="0 0 124 202" style="enable-background:new 0 0 124 202;" xml:space="preserve">
<style type="text/css">
	.st0{fill:#EED1C6;}
	.st1{fill:none;stroke:#662483;stroke-width:2;stroke-linecap:round;stroke-miterlimit:10;}
	.st2{fill:none;stroke:#662483;stroke-linecap:round;stroke-miterlimit:10;}
	.st3{fill:none;stroke:#843D15;stroke-width:2;stroke-linecap:round;stroke-miterlimit:10;}
	.st4{fill:none;stroke:#843D15;stroke-linecap:round;stroke-miterlimit:10;}
</style>
<path class="st0" d="M15.7,186.7c0,0,9.4-13.5,7.6-20.2s-8.9-24.8-8.9-34.7s0.2-26.3,1-29.7s3.7-9.6,4.6-13.8s1.2-12,1.4-17.4
	s1.4-18,2.4-20.9c1-2.9,1.2-5,3.3-4.9s1.8,1.7,1.8,7.7S29,86,29,86l6.1-2.9l1.6-42.7c0,0,0.3-18.9,4-18.6c3.7,0.4,5.5,0.2,5.3,6.6
	s-0.9,51.2-0.9,51.2l4.6-0.9l0.5-56.9c0,0-0.4-8.4,3.9-8s6.1,1.9,6.8,8.8s1.4,55.5,1.4,55.5l4.5,1l-1.5-46.9c0,0,0.2-12.1,3.9-12.6
	s6.2,10.2,6.6,14.2s4.2,55.5,4.2,55.5l1.3,23.5v2.5c0,0,4-1.1,8,0.8c0,0,3.8-10.6,9.6-13.2c0,0-1.8-16.1,2.8-20
	c4.5-3.9,4-4.4,5.4-3.7s2.1,2.5,1.6,5.9s0.2,5.5,0.2,6.4s1.5,10.5,1.2,13.3s-7.1,14.7-7.1,14.7s-6.8,15.2-12,19.8
	s-19.9,21.1-19.9,21.1s-4.4,2.8-5.8,10.5s-3.2,15.7-3.2,15.7H15.7z"/>
<path class="st3" d="M12.2,186.7c0,0,7.8-14.8,7-21s-6.8-19.8-7-27s-1.5-32.8,1.2-39.8s5.4-15,5.8-20.5s-0.1-34.2,6.4-35.2
	s5.2,6.2,5.2,9.5s0.1,32,0.1,32"/>
<path class="st3" d="M33.2,83.1l2.2-54.4c0,0-0.5-9,6.2-9s6.7,6,6.7,6"/>
<path class="st3" d="M65.5,186.7c0,0,1-18.2,5.4-22s24.5-26.9,24.5-26.9s2-1.5,6.5-10.6s10.4-18.1,10.4-20.5s-0.1-11.2-1-14.5
	s0-7.8-0.1-9.9s-1.1-6-4.8-5.2s-9.8,5.9-9.8,13.6s-0.1,11.2-0.1,11.2s-5.9,5.1-7.6,11.5c0,0-8.6-3.9-21.9,6.5"/>
<path class="st4" d="M107.2,103.1c0,0-4.9-3.6-10.8-1.1"/>
<path class="st3" d="M83.4,112.8c0,0-1.9-29.8-2-35s-2-31.6-2.4-35.9s-1.9-24.6-9.5-24.4s-5.9,18.9-5.8,23.6s0.6,37.2,0.6,37.2"/>
<path class="st3" d="M47.4,78.6l1-59.6c0,0,0.5-7.1,5.4-7.1s10,0.4,9.7,19.4"/>
<path class="st4" d="M60.2,85.9c0,0-3.8,18.5-43.2,20.2"/>
<path class="st4" d="M73.4,93.2c0,0-46.9,21.5-56.4,46.2"/>
<path class="st4" d="M65.5,104.9c0,0-21.2,14-15.5,47"/>
<path class="st4" d="M65.5,165.4c0,0-15.8,4-26.9,1"/>
<path class="st4" d="M52.1,162.7c0,0-9.1-3.5-13.4-2.8s-12.8,2.5-17.2-0.1"/>
<path class="st4" d="M71.2,80.6c0,0-19.5-9.4-48,8.9"/>
<path class="st4" d="M67,57.9c0,0,5.3-0.2,13.2,0"/>
<path class="st4" d="M63.8,41.2c0,0,5.2-1.5,11.2-1.5"/>
<path class="st4" d="M63.5,55.2c0,0-7.1-0.8-11.4,0"/>
<path class="st4" d="M47.4,61.2c0,0-0.6-1.8-10.6,0"/>
<path class="st4" d="M34.9,44.2c0,0,2.8-2.7,10.4-2"/>
<path class="st4" d="M48.3,34.7c0,0,4.9-2.8,11.9-1"/>
<path class="st4" d="M27.8,61.2c0,0-3.8-0.3-7.8,1.2"/>
<path class="st4" d="M31.1,77c0,0-1.1-1.8-7.8-0.8"/>
</svg>
